<?xml version="1.0" standalone="no"?><!DOCTYPE svg PUBLIC "-//W3C//DTD SVG 1.1//EN" "http://www.w3.org/Graphics/SVG/1.1/DTD/svg11.dtd"><svg class="icon" height="512" viewBox="0 0 1024 1024" version="1.1" xmlns="http://www.w3.org/2000/svg"><path d="M597.57332 8.316055s44.513725 4.818807 89.268391 27.949078M445.118329 4.34054S581.008673-18.669261 696.419089 41.264645l-6.023508 19.576401-135.227758 5.300688" fill="#FFFFFF" /><path d="M214.719142 365.449854V215.344031s-0.602351-52.645461 28.250254-95.472605c0 0 47.344774-80.233129 157.334032-105.953508L327.29851 182.937557s-4.999512 24.154268-3.252695 33.55094v154.442749" fill="#FFFFFF" /><path d="M324.045815 216.488497s4.276691-39.755154 34.695407-68.848698c0 0 45.417251-50.175823 131.252243-52.223816 0 0 18.49217-71.017161 17.407938-71.559277C506.317172 23.254356 397.110969 21.266598 397.110969 21.266598l-44.69443 31.683653-60.837433 98.363888" fill="#FFFFFF" /><path d="M489.993465 95.415983s108.302677-9.095497 168.055877 43.429494c59.692966 52.524991 27.527432-10.78208 27.527433-10.78208l-5.059747-67.764466L612.089975 21.266598 525.110517 3.617719S464.393555-1.140852 400.243193 13.917918" fill="#FFFFFF" /><path d="M660.39851 140.953705s42.465732 35.598933 42.465733 87.943219v144.744901l108.603852-8.191971V202.935604s-19.154756-83.064177-115.109241-125.469675" fill="#FFFFFF" /><path d="M495.474857 2.955133s134.263997-13.372188 228.471664 55.657215c0 0 63.126365 42.525968 80.172894 105.772804 0 0 7.830561 27.346727 6.746329 40.357504" fill="#FFFFFF" /><path d="M370.908709 22.4713s89.087686-41.562206 251.360995-9.637614l-37.707161 21.443689-211.846782 24.636149" fill="#FFFFFF" /><path d="M331.09332 190.286237s-8.493146 20.058282-6.98727 44.092079c1.566112 24.033798-18.672875 14.998535-20.479927 13.552894a243.349729 243.349729 0 0 1-20.359458-27.406962M336.032596 37.65054S393.737805 4.34054 474.091403 1.690196c80.353599-2.710579-8.011266 61.138608-8.011266 61.138608l-61.861428 25.47944" fill="#FFFFFF" /><path d="M689.371585 488.269185c-0.722821-2.590109-56.560742-55.898156-56.560742-55.898156S425.963573 514.0498 426.927335 513.748624c0.963761-0.36141 4.03575 35.177288 4.03575 35.177288 14.57689-25.780615 41.622441-36.141049 41.622441-36.141049 39.574449-16.444177 74.631266 4.216456 74.631266 4.216456 41.682676 23.551917 44.152315 65.897179 44.152315 65.897179 5.601863 56.620977-38.851628 82.341356-38.851628 82.341356v106.134214c2.288933 3.011754 4.156221 6.625859 5.300688 11.203725 4.397161 18.13076 7.047505 36.502459 9.215967 54.99463 33.129295-6.987269 68.848698-14.69736 69.511284-15.721357 1.264937-1.867288 51.500995-92.762026 51.500995-95.231663 0-2.529873 33.611175-115.711592 33.008825-117.57888l-31.683653-120.771338z" fill="#FFFFFF" /><path d="M430.963085 548.925912s-39.755154 66.318825 27.527432 116.313942c0 0-25.057794 26.985317-27.527432 26.985317s-53.669458 2.831049-57.765443 1.566112-36.502459-63.246836-39.393744-68.065642c-2.831049-4.698336 15.239476-79.992188 14.69736-80.95595-0.662586-0.903526 38.369747-29.816365 38.369747-29.816365l25.780615-1.566112 16.203237-4.698336" fill="#FFFFFF" /><path d="M458.490517 665.239854l-8.432911 52.645462s-6.987269 51.862405-8.553382 52.464756c-1.566112 0.662586-46.441248 21.92557-49.573472 22.226745-3.192459 0.36141-33.008825-36.141049-34.635172-40.65868-1.566112-4.457396 21.564159-70.53528 21.564159-70.535281M821.708059 362.55857s41.562206-1.987758 51.80217 54.332043c0 0 0.903526 8.613617 0.903526 15.420181v309.126439H686.841711L667.38578 540.914646l42.405497-80.172893" fill="#FFFFFF" /><path d="M640.761874 707.344176l-68.788463 174.320326 1.927522 18.070525c0.24094 2.168463-0.481881 3.79481-0.662585 5.722333 2.047993 3.312929 4.939277 5.842803 6.204213 9.818318a26.142025 26.142025 0 0 1-6.143978 27.105787l2.469638 81.5583h253.107813c47.525479-10.78208 45.477487-68.728228 45.477486-68.728228V741.497468l-233.591646-34.153292z" fill="#FFFFFF" /><path d="M578.057154 892.085171a134.565172 134.565172 0 0 0-5.059747-1.204701l0.963762 8.794322c0.301175 2.228698-0.36141 3.91528-0.481881 5.903038 1.927523 3.312929 4.758571 5.782568 6.023508 9.637613 8.493146 27.166022-21.865335 44.69443-44.272785 33.972586-11.745841-5.601863-23.672387-10.721845-35.056817-16.685118a29.39472 29.39472 0 0 1-27.527433-11.38443c-27.467197 21.865335-66.077884-18.13076-39.514213-44.573961l1.867287-1.867287a27.949078 27.949078 0 0 1 21.985805-8.794322c-3.79481-19.094521-3.79481-37.948101-3.493635-57.464268 0.060235-3.132224 1.445642-5.240452 2.228698-7.890795l-0.301175-1.566113s-56.500506-138.661158-57.644973-140.167034c-1.144467-1.385407-7.58962-61.680723-12.408427-64.993653-4.818807-3.252694-23.190506-16.203237-25.72038-16.203237S209.900336 366.23291 209.900336 366.23291l-58.78944 419.416872v177.09114s2.770814 56.139096 52.705697 61.138608h372.011863s17.227233-72.583273 16.624883-74.028915c-0.481881-1.445642-13.552893-57.524503-14.396185-57.765444z" fill="#FFFFFF" /><path d="M216.94784 370.569836l-5.963273 340.990796-59.873671 81.558301v-355.989332c-1.686582-71.559277 50.296293-74.571031 50.296293-74.571031" fill="#FFFFFF" /><path d="M201.407189 362.55857h620.30087v51.500994s-56.681212 74.330091-60.476022 74.330091-89.870742 11.324195-93.846257 6.625859-118.843816-6.565624-121.674865-7.529385-73.426564 21.142514-73.426564 21.142513l-76.257613 32.466709s-44.935371 38.731157-54.452514 36.7434-63.126365-15.902062-72.583273-25.84085M458.490517 665.239854v240.0368l-37.044575-13.131247s-54.030868-126.252731-55.35604-127.939314M552.517479 665.239854v240.0368l36.683165 31.322243s60.957903-50.055353 59.994141-52.886402" fill="#FFFFFF" /><path d="M458.490517 905.276654h107.941266s43.309024 28.671899 43.309024 31.322243-26.925081 46.862893-31.081302 45.959367-153.418753-16.926058-158.117089-18.853581-84.63029-38.610687-87.039693-46.140072 32.587179-64.933418 32.587179-64.933418" fill="#FFFFFF" /></svg>